<?xml version="1.0" encoding="UTF-8" standalone="no"?>
<svg
   width="256"
   height="64"
   viewBox="0 0 256 64"
   version="1.1"
   id="svg3"
   sodipodi:docname="logo.svg"
   inkscape:version="1.3.2 (091e20e, 2023-11-25, custom)"
   xmlns:inkscape="http://www.inkscape.org/namespaces/inkscape"
   xmlns:sodipodi="http://sodipodi.sourceforge.net/DTD/sodipodi-0.dtd"
   xmlns:xlink="http://www.w3.org/1999/xlink"
   xmlns="http://www.w3.org/2000/svg"
   xmlns:svg="http://www.w3.org/2000/svg">
  <defs
     id="defs3">
    <linearGradient
       id="linearGradient3"
       inkscape:collect="always">
      <stop
         style="stop-color:#0000d9;stop-opacity:1;"
         offset="0"
         id="stop3" />
      <stop
         style="stop-color:#00f5ef;stop-opacity:0.94047618;"
         offset="1"
         id="stop4" />
    </linearGradient>
    <linearGradient
       inkscape:collect="always"
       xlink:href="#linearGradient3"
       id="linearGradient4"
       x1="72.247398"
       y1="54.626034"
       x2="222.39714"
       y2="54.626034"
       gradientUnits="userSpaceOnUse"
       gradientTransform="matrix(0.79635319,0,0,0.79635319,13.190902,0.58009839)" />
  </defs>
  <sodipodi:namedview
     id="namedview3"
     pagecolor="#ffffff"
     bordercolor="#000000"
     borderopacity="0.25"
     inkscape:showpageshadow="2"
     inkscape:pageopacity="0.0"
     inkscape:pagecheckerboard="0"
     inkscape:deskcolor="#d1d1d1"
     inkscape:zoom="2.4492188"
     inkscape:cx="81.658692"
     inkscape:cy="27.968102"
     inkscape:window-width="1858"
     inkscape:window-height="1057"
     inkscape:window-x="-8"
     inkscape:window-y="-8"
     inkscape:window-maximized="1"
     inkscape:current-layer="svg3" />
  <title
     id="title1">WhiteSpider</title>
  <path
     d="m 204.9406,14.595501 c -0.002,0.0021 2.8e-4,8.33e-4 -0.004,0.0043 -0.0342,0.02733 -0.097,0.08903 -0.18917,0.19399 -0.18431,0.209933 -0.48953,0.591248 -1.01942,1.254255 -0.22746,0.2846 -0.44626,0.553948 -0.6136,0.758895 -0.0837,0.102473 -0.15381,0.188658 -0.20776,0.253169 -0.054,0.06451 -0.0802,0.09764 -0.11237,0.129329 l -0.16006,0.15739 -0.16491,-0.119569 c -1.00035,-0.728059 -2.13687,-1.104838 -3.29029,-1.105401 -1.13976,0.0037 -2.26222,0.374451 -3.25309,1.08893 l -0.14067,0.101269 -0.14066,-0.100657 c -0.18103,-0.129255 -0.37797,-0.383444 -0.9208,-1.070021 -0.57085,-0.721965 -0.89363,-1.124176 -1.08574,-1.337216 -0.096,-0.106522 -0.16103,-0.165413 -0.1924,-0.187284 -0.007,-0.0046 -0.003,-0.0029 -0.005,-0.0049 0.0117,4.16e-4 -0.002,0.0012 -0.0396,0.0073 -0.0461,0.0077 -0.11176,0.01954 -0.19241,0.03478 -0.1613,0.03045 -0.38413,0.07428 -0.64674,0.127501 -0.52522,0.106435 -1.21185,0.249836 -1.90222,0.396529 -0.69037,0.146692 -1.38392,0.296555 -1.92485,0.416657 -0.27047,0.06005 -0.50328,0.112442 -0.67665,0.153125 -0.17338,0.0407 -0.30518,0.07684 -0.30882,0.07808 -0.0202,0.0069 -0.0326,0.01004 -0.0493,0.06711 -0.0167,0.05696 -0.0177,0.159661 0.0113,0.297093 v 8.33e-4 l 0.017,0.07869 0.0485,-0.0012 c -0.0184,4.17e-4 0.0194,-0.0021 0.0639,-0.0085 0.0444,-0.0067 0.10556,-0.01696 0.18028,-0.02991 0.14944,-0.02591 0.35314,-0.06328 0.595,-0.109197 0.4837,-0.09184 1.12083,-0.217414 1.79308,-0.355046 0.67389,-0.137966 1.30899,-0.266225 1.79066,-0.361145 0.24083,-0.04747 0.44424,-0.08643 0.59419,-0.114691 0.14995,-0.02824 0.22206,-0.04377 0.29265,-0.05124 0.0698,-0.0074 0.14784,-0.01516 0.23848,0.0012 0.0906,0.01637 0.17457,0.05849 0.24334,0.111638 0.13753,0.106306 0.26619,0.267391 0.51901,0.575273 0.38235,0.465621 0.67793,0.838793 0.8836,1.115161 0.10284,0.138186 0.18384,0.252273 0.24253,0.343457 0.0587,0.09118 0.095,0.151687 0.11318,0.221447 l 0.0186,0.06893 -0.059,0.05612 c -0.49937,0.469817 -0.93825,1.027485 -1.29914,1.655054 l -0.11641,0.203755 -1.09137,-0.798548 h -8.3e-4 c -0.25041,-0.183476 -0.49147,-0.354855 -0.67746,-0.482547 -0.093,-0.06384 -0.17231,-0.116616 -0.2304,-0.153733 -0.0291,-0.01854 -0.0528,-0.03345 -0.0687,-0.0427 -0.003,-0.0017 -0.005,-0.0021 -0.008,-0.0037 -9.4e-4,3.46e-4 -5e-4,2.67e-4 -0.002,8.33e-4 -0.0366,0.0115 -0.1382,0.05779 -0.31043,0.147634 -0.47595,0.248266 -3.87326,2.186411 -4.48675,2.560353 -0.35105,0.213982 -0.53353,0.331518 -0.59581,0.39043 -0.0311,0.02945 -0.0319,0.03708 -0.034,0.04637 -0.002,0.0093 -0.001,0.03133 0.008,0.07747 0.0256,0.12438 0.0558,0.209903 0.0817,0.259879 0.0213,-0.0062 0.003,-8.33e-4 0.055,-0.02441 0.10321,-0.04666 0.26304,-0.127434 0.49233,-0.25134 0.45858,-0.247812 1.2013,-0.669714 2.39697,-1.355516 0.89653,-0.514224 1.43418,-0.819743 1.76479,-0.999253 0.1653,-0.08975 0.27803,-0.147876 0.36379,-0.186676 0.0858,-0.03882 0.1359,-0.06833 0.24819,-0.06833 0.12148,0 0.11967,0.02424 0.14632,0.0372 0.0267,0.013 0.051,0.02687 0.0792,0.04392 0.0565,0.03416 0.12488,0.07917 0.20292,0.132992 0.15608,0.107655 0.35129,0.249957 0.54407,0.395916 0.19277,0.145968 0.38213,0.29456 0.52871,0.416054 0.0733,0.06074 0.13642,0.114474 0.18432,0.159223 0.0239,0.02237 0.0436,0.04242 0.0614,0.06222 0.0178,0.01979 0.035,0.03045 0.0517,0.08052 0.0164,0.04915 0.007,0.05435 0.006,0.06955 -0.001,0.01521 -0.003,0.02937 -0.006,0.04453 -0.005,0.03033 -0.0117,0.06349 -0.0162,0.08968 l -0.002,0.01404 -0.006,0.01283 c -0.30324,0.708064 -0.51006,1.469878 -0.61198,2.255338 l -0.004,0.02866 -0.0178,0.02624 c -0.0483,0.07044 -0.18149,0.13375 -0.27082,0.141527 -0.0891,0.0077 -0.12183,-0.0042 -0.18271,-0.01525 -0.0609,-0.01108 -0.13285,-0.02695 -0.21504,-0.04697 -0.16436,-0.04007 -0.36997,-0.09699 -0.59257,-0.164713 -0.20504,-0.06238 -0.39622,-0.117166 -0.53599,-0.154341 -0.0451,-0.012 -0.0734,-0.01837 -0.1059,-0.02624 -0.0361,0.03574 -0.0806,0.08005 -0.13986,0.140923 -0.13198,0.135641 -0.3152,0.328323 -0.53356,0.558801 -0.43672,0.460952 -1.01172,1.074683 -1.58936,1.695312 -0.57763,0.620629 -1.15865,1.248477 -1.60714,1.738627 -0.22425,0.245075 -0.41518,0.455403 -0.5562,0.613093 -0.13628,0.152404 -0.22648,0.259834 -0.2401,0.277572 0.002,0.0017 -0.006,0.02866 0.002,0.06344 0.0102,0.0475 0.034,0.10973 0.0647,0.165934 0.018,0.03303 0.0373,0.05231 0.0566,0.07747 0.004,-0.0029 0.004,-0.0033 0.008,-0.0067 0.0759,-0.06658 0.18965,-0.175999 0.34924,-0.337963 0.31917,-0.323936 0.82538,-0.859197 1.61927,-1.709958 0.95365,-1.021961 1.57266,-1.682561 1.96205,-2.088791 0.19469,-0.203114 0.33221,-0.342179 0.42603,-0.433133 0.0469,-0.04547 0.0826,-0.0793 0.11318,-0.104927 0.0153,-0.01279 0.0281,-0.02254 0.0469,-0.03478 0.009,-0.0061 0.0195,-0.01362 0.038,-0.02195 0.0185,-0.0083 0.044,-0.02316 0.11157,-0.02316 0.0692,0 0.0752,0.0079 0.10267,0.01404 0.0275,0.0062 0.0575,0.01362 0.093,0.02316 0.0709,0.01916 0.16137,0.04512 0.26354,0.07626 0.20435,0.06227 0.45755,0.144235 0.69201,0.225104 0.1552,0.05353 0.26899,0.09735 0.35813,0.142752 0.0891,0.0454 0.17351,0.09443 0.20049,0.191553 4.6e-4,0.0021 0.004,0.01879 0.004,0.02258 4.6e-4,0.0042 2.7e-4,0.0085 8.3e-4,0.01283 5e-4,0.0043 0.001,0.0087 0.002,0.01158 l 0.002,0.0092 v 0.01645 4.17e-4 c 0.002,0.946794 0.15681,1.884915 0.45353,2.7635 l 0.0323,0.09578 -0.10267,0.06162 c -0.10734,0.06421 -0.18467,0.06369 -0.36298,0.08907 -0.17832,0.02537 -0.45093,0.05795 -0.88361,0.108584 -0.27287,0.03195 -0.53128,0.0632 -0.72677,0.08785 -0.0977,0.01233 -0.17961,0.02295 -0.2393,0.03112 -0.0539,0.0074 -0.0929,0.01483 -0.0808,0.01158 -0.01,0.0083 -0.0348,0.03537 -0.0695,0.08724 -0.07,0.104539 -0.17957,0.302345 -0.36055,0.644815 -0.62482,1.182351 -2.53941,5.003445 -2.85535,5.696596 -0.0904,0.198372 -0.12417,0.313501 -0.12127,0.367247 0.003,0.05375 0.0147,0.06823 0.10833,0.138482 7.7e-4,4.17e-4 0.002,4.17e-4 0.002,0.0012 0.0357,-0.05226 0.0757,-0.110063 0.17543,-0.294043 0.25468,-0.469729 0.75232,-1.447721 1.77772,-3.457125 0.6381,-1.250427 0.96006,-1.880638 1.1512,-2.214459 0.0956,-0.166913 0.1561,-0.259726 0.22312,-0.329423 0.067,-0.0697 0.16762,-0.113196 0.21908,-0.12933 0.16857,-0.05286 0.42068,-0.08905 0.73809,-0.124451 0.31742,-0.03541 0.68652,-0.06406 1.03317,-0.07747 l 0.6435,-0.02499 0.0509,0.107976 c 1.12661,2.403279 3.25258,3.858211 5.51103,3.861585 2.26184,-0.0042 4.39117,-1.463921 5.51587,-3.873174 l 0.0372,-0.08174 0.11237,-0.0177 c 0.0771,-0.01221 0.1177,-0.0073 0.1916,-0.0049 0.0739,0.0025 0.16441,0.0076 0.26759,0.01466 0.20635,0.01404 0.46333,0.03649 0.7203,0.06161 0.25697,0.02512 0.51417,0.05277 0.72192,0.07931 0.10388,0.01325 0.19451,0.0262 0.26921,0.03845 0.0747,0.01225 0.12306,0.01833 0.18755,0.04087 0.0592,0.02066 0.14981,0.07579 0.21262,0.153732 0.0628,0.07794 0.13133,0.190837 0.24172,0.389818 0.22078,0.397958 0.60081,1.140197 1.33066,2.570118 0.73731,1.444525 1.15842,2.266081 1.40828,2.73788 0.22403,0.423048 0.28993,0.513045 0.32094,0.551478 l 0.0259,-0.02075 c 0.0505,-0.0417 0.0964,-0.0859 0.12694,-0.118373 0.004,-0.0042 0.005,-0.0049 0.008,-0.0085 -0.0158,-0.03508 -0.0401,-0.08683 -0.0711,-0.1519 -0.0621,-0.130137 -0.15196,-0.31518 -0.26274,-0.539888 -0.22157,-0.449417 -0.52588,-1.058503 -0.85612,-1.714837 -0.6605,-1.312671 -1.42537,-2.814426 -1.83917,-3.600481 -0.11763,-0.223454 -0.23048,-0.423818 -0.31851,-0.568561 -0.044,-0.07238 -0.0826,-0.131242 -0.10995,-0.169596 -0.005,-0.0067 -0.006,-0.0081 -0.01,-0.01341 -0.0114,-0.0021 -0.02,-0.0037 -0.0348,-0.0061 -0.0592,-0.0097 -0.14228,-0.02212 -0.24253,-0.03599 -0.20049,-0.02774 -0.46728,-0.06161 -0.75021,-0.09455 -0.4561,-0.05311 -0.73903,-0.0867 -0.91999,-0.112858 -0.0905,-0.01308 -0.15495,-0.02395 -0.20938,-0.03662 -0.0544,-0.01262 -0.10577,-0.02212 -0.16492,-0.07138 l -0.0736,-0.06039 0.0275,-0.07931 c 0.28736,-0.855514 0.43915,-1.766692 0.44787,-2.687854 1e-5,-0.0017 -2e-5,-0.0033 0,-0.0049 v -0.01283 l 0.003,-0.01221 v -4.17e-4 -8.33e-4 c 0.0235,-0.10189 0.0423,-0.17392 0.12611,-0.243408 0.0491,-0.0407 0.0771,-0.04814 0.11965,-0.06711 0.0426,-0.01895 0.0928,-0.03912 0.15036,-0.061 0.11507,-0.04378 0.25816,-0.09447 0.40664,-0.14336 0.29695,-0.09778 0.58509,-0.188017 0.77124,-0.215957 0.0432,-0.0065 0.11138,-0.01625 0.18998,-4.16e-4 0.0786,0.01566 0.1409,0.05115 0.19644,0.09212 0.11109,0.08194 0.23398,0.207991 0.47859,0.455091 0.28375,0.286632 1.16996,1.2207 1.97902,2.084525 1.05116,1.122314 1.58626,1.691658 1.86423,1.962511 0.0807,0.07862 0.0933,0.08367 0.13258,0.115299 0.0112,-0.02183 0.0215,-0.0397 0.0323,-0.06406 0.0395,-0.08868 0.0637,-0.186167 0.0679,-0.208025 -0.009,-0.01333 -0.0202,-0.02995 -0.0388,-0.05429 -0.0441,-0.05782 -0.11286,-0.141719 -0.20292,-0.247679 -0.18011,-0.211915 -0.44632,-0.513186 -0.78498,-0.887615 -0.67731,-0.748855 -1.64479,-1.792311 -2.8028,-3.020939 -0.23254,-0.246724 -0.44743,-0.474845 -0.60632,-0.643599 -0.11328,-0.120323 -0.15077,-0.159781 -0.19483,-0.206804 -0.0299,0.0065 -0.0528,0.01121 -0.0938,0.02137 -0.13971,0.03453 -0.33368,0.08788 -0.54326,0.150683 -0.21554,0.06458 -0.42543,0.122798 -0.59176,0.16593 -0.0832,0.02158 -0.15446,0.03953 -0.21343,0.05246 -0.059,0.01291 -0.0784,0.02441 -0.16572,0.02441 -0.0498,0 -0.14565,-0.009 -0.21666,-0.0549 -0.071,-0.04584 -0.0999,-0.100186 -0.12612,-0.160439 l -0.007,-0.01525 -0.002,-0.01708 c -0.10462,-0.800285 -0.31798,-1.575401 -0.63136,-2.294333 l -0.0154,-0.03353 0.006,-0.03478 c 0.0153,-0.0834 0.0562,-0.117483 0.10429,-0.172033 0.0481,-0.05456 0.10938,-0.115054 0.18189,-0.181793 0.14502,-0.133479 0.33324,-0.289982 0.52709,-0.440452 0.19385,-0.150471 0.39235,-0.294743 0.56105,-0.404461 0.0843,-0.05486 0.16121,-0.101006 0.2304,-0.136648 0.0692,-0.03566 0.10174,-0.07382 0.24495,-0.07382 0.063,0 0.0726,0.009 0.0865,0.01341 0.0139,0.0044 0.0239,0.0084 0.0332,0.01221 0.0185,0.0076 0.0362,0.01533 0.0574,0.02562 0.0423,0.02058 0.0969,0.04901 0.16977,0.08785 0.14572,0.07767 0.35979,0.196019 0.65563,0.361145 0.5917,0.33026 1.50876,0.848958 2.83757,1.605028 0.47186,0.268482 0.87307,0.487429 1.1609,0.633838 0.12109,0.0616 0.20962,0.101353 0.28456,0.13482 0.0262,-0.06927 0.0544,-0.158098 0.0792,-0.262321 0.0118,-0.0493 0.017,-0.03853 -0.006,-0.07137 -0.0234,-0.03287 -0.10351,-0.107035 -0.28295,-0.226325 -0.35887,-0.238581 -1.09616,-0.661279 -2.51581,-1.469599 -0.89669,-0.510558 -1.52152,-0.863501 -1.94426,-1.096857 -0.39911,-0.220318 -0.6043,-0.321479 -0.67422,-0.351389 -0.0139,0.0064 -0.0194,0.0065 -0.0622,0.03295 -0.13042,0.08049 -0.37571,0.257751 -0.81975,0.583817 -0.25626,0.188179 -0.49029,0.356604 -0.66775,0.481322 -0.0887,0.06236 -0.16257,0.113654 -0.21989,0.1519 -0.0287,0.01912 -0.0527,0.03466 -0.0736,0.04759 -0.0208,0.01291 -0.0285,0.02045 -0.0687,0.0372 l -0.19564,0.08114 -0.0889,-0.154341 c -0.35632,-0.612729 -0.78735,-1.158291 -1.27643,-1.619093 l -0.0534,-0.04941 0.0105,-0.06345 c 0.0344,-0.222121 0.24142,-0.471612 0.84157,-1.22497 0.43834,-0.550244 0.65766,-0.825104 0.80761,-0.97912 0.075,-0.07701 0.1339,-0.129767 0.21909,-0.166542 0.0852,-0.03678 0.17869,-0.03903 0.22959,-0.03903 0.0522,0 0.0693,0.0049 0.10752,0.01037 0.0382,0.0055 0.0848,0.01241 0.14067,0.02195 0.11175,0.01908 0.25906,0.04654 0.43412,0.07991 0.35011,0.06675 0.80884,0.158353 1.29267,0.259268 1.23097,0.256751 2.11016,0.434824 2.69447,0.545383 0.29216,0.05527 0.51041,0.09403 0.65968,0.116516 0.0683,0.01029 0.11809,0.01646 0.15521,0.02012 0.005,-0.0098 0.009,-0.01325 0.0154,-0.03233 0.0222,-0.06847 0.038,-0.189433 0.038,-0.353213 0,-0.02724 -0.002,-0.04003 -0.004,-0.05247 -0.008,-0.0021 -0.005,-0.0021 -0.0202,-0.0055 -0.41457,-0.09904 -1.75136,-0.392755 -3.03068,-0.669248 -0.63965,-0.138248 -1.26576,-0.272785 -1.75913,-0.377008 -0.48334,-0.102106 -0.83667,-0.173682 -0.93453,-0.190945 z"
     style="fill:#000080;stroke-width:0.479488"
     id="path1" />
  <path
     d="m 204.89022,14.284154 c -0.0949,0.0066 -0.18211,0.05029 -0.249,0.103739 -0.0669,0.05344 -0.13625,0.125197 -0.23364,0.236152 -0.19479,0.221917 -0.49912,0.602237 -1.02916,1.265598 -0.22688,0.283954 -0.44399,0.55222 -0.61037,0.756062 -0.0832,0.101919 -0.15353,0.187854 -0.20616,0.250803 -0.004,0.0045 -0.003,0.0037 -0.007,0.0079 -1.01887,-0.689127 -2.17774,-1.089271 -3.37608,-1.089855 h -8.3e-4 c -1.18416,0.0038 -2.32958,0.396829 -3.33888,1.073375 -0.0887,-0.08204 -0.27843,-0.288011 -0.7656,-0.904341 -0.57131,-0.722773 -0.89149,-1.123318 -1.09787,-1.35225 -0.1032,-0.114467 -0.1762,-0.186847 -0.25305,-0.240426 -0.0769,-0.05358 -0.18685,-0.08848 -0.27244,-0.08848 -0.0771,0 -0.0848,0.0077 -0.13744,0.0165 -0.0526,0.0088 -0.12018,0.02037 -0.20292,0.03599 -0.16548,0.03124 -0.39013,0.07588 -0.65404,0.129367 -0.52781,0.106989 -1.21472,0.250265 -1.90632,0.397253 -0.6916,0.146989 -1.38724,0.297947 -1.93057,0.418612 -0.27166,0.06033 -0.50549,0.113491 -0.68233,0.154995 -0.17684,0.04149 -0.2802,0.06482 -0.35653,0.09092 -0.14728,0.05037 -0.24337,0.162322 -0.2781,0.280704 -0.0347,0.118383 -0.0273,0.251053 0.006,0.410676 l 0.0736,0.349048 0.41069,-0.01283 c 0.05,-0.0017 0.0768,-0.007 0.12774,-0.01466 0.0509,-0.0077 0.11534,-0.01837 0.19241,-0.03174 0.15412,-0.0267 0.35873,-0.06481 0.60229,-0.111059 0.48712,-0.09251 1.12679,-0.218256 1.80122,-0.356371 0.6728,-0.137778 1.30674,-0.265424 1.78667,-0.360028 0.23997,-0.0473 0.44184,-0.08691 0.58936,-0.114721 0.14752,-0.02783 0.26591,-0.04608 0.25143,-0.04455 0.0583,-0.0062 0.0814,-0.005 0.0857,-0.0042 0.004,8.33e-4 0.0102,-2.75e-4 0.0461,0.02745 0.0718,0.05547 0.21289,0.21604 0.46486,0.522959 0.38052,0.463518 0.67394,0.834007 0.87474,1.103889 0.10039,0.134941 0.17821,0.245329 0.23121,0.327685 0.0374,0.05815 0.0459,0.07917 0.0574,0.103127 -0.43836,0.424785 -0.81484,0.922521 -1.14557,1.459648 l -0.69526,-0.508925 c -0.25326,-0.185609 -0.49669,-0.358579 -0.68719,-0.489396 -0.0952,-0.06541 -0.17662,-0.120006 -0.24091,-0.161097 -0.0322,-0.02054 -0.0604,-0.0377 -0.0849,-0.05187 -0.0245,-0.01416 -0.0342,-0.02349 -0.0833,-0.04028 -0.0786,-0.02691 -0.22407,-0.03678 -0.33147,-0.0029 -0.10739,0.03374 -0.20972,0.08762 -0.38563,0.179406 -0.54063,0.282084 -3.86318,2.178971 -4.51195,2.574517 -0.35229,0.214798 -0.53815,0.326049 -0.65726,0.438749 -0.0596,0.05635 -0.10287,0.120594 -0.11723,0.186117 -0.0144,0.06552 -0.004,0.12136 0.007,0.174519 0.0297,0.14431 0.0639,0.255981 0.11399,0.345999 0.025,0.04501 0.0535,0.08539 0.10106,0.123264 0.0476,0.03787 0.1272,0.07383 0.21585,0.07383 0.13324,0 0.19659,-0.03762 0.31853,-0.09275 0.12194,-0.05515 0.28558,-0.138652 0.51903,-0.264837 0.4669,-0.252373 1.21111,-0.674371 2.40756,-1.36079 0.896,-0.514057 1.43345,-0.820122 1.75594,-0.995271 0.16125,-0.08757 0.26939,-0.142156 0.33551,-0.172078 0.0225,-0.01021 5e-4,-0.0049 0.0129,-0.0085 0.0439,0.02666 0.10594,0.06759 0.17867,0.11777 0.14858,0.10251 0.33934,0.242837 0.52872,0.386268 0.18938,0.143435 0.37725,0.290202 0.51741,0.40641 0.0701,0.0581 0.12896,0.108601 0.16816,0.14523 0.0124,0.01154 0.0179,0.01812 0.0259,0.02624 v 4.16e-4 c -0.004,0.02254 -0.009,0.05177 -0.0137,0.07994 -0.29641,0.697578 -0.49239,1.445971 -0.59987,2.213267 -0.0448,-0.0082 -0.10717,-0.02145 -0.1819,-0.03966 -0.15145,-0.03695 -0.35081,-0.09198 -0.56592,-0.15744 -0.20977,-0.06384 -0.40399,-0.12046 -0.55217,-0.159877 -0.0741,-0.0197 -0.13707,-0.03487 -0.18675,-0.04577 -0.0248,-0.0055 -0.0452,-0.01 -0.0687,-0.01341 -0.0118,-0.0017 -0.0233,-0.0033 -0.0429,-0.0042 -0.01,-4.17e-4 -0.022,-8.33e-4 -0.0404,4.16e-4 -0.009,8.33e-4 -0.0199,0.0025 -0.034,0.0055 -0.0141,0.0029 -0.0522,0.01754 -0.0525,0.0177 -0.0454,0.02108 -0.0428,0.02454 -0.0509,0.03112 -0.008,0.0066 -0.0145,0.01291 -0.0218,0.01954 -0.0146,0.01325 -0.0315,0.02895 -0.0517,0.04882 -0.0405,0.0397 -0.0939,0.09471 -0.16088,0.163539 -0.13391,0.137653 -0.31871,0.330893 -0.53762,0.562013 -0.43782,0.462235 -1.01288,1.075686 -1.59102,1.697019 -0.57814,0.621333 -1.16016,1.250831 -1.60962,1.742181 -0.22474,0.24567 -0.4162,0.456986 -0.55864,0.616321 -0.14244,0.159332 -0.22588,0.252782 -0.26841,0.312431 -0.0662,0.09283 -0.0507,0.1694 -0.034,0.247749 0.0168,0.07835 0.0494,0.158249 0.0906,0.233715 0.0412,0.07546 0.0899,0.144931 0.15199,0.204422 0.031,0.02974 0.0642,0.05783 0.11642,0.08238 0.0522,0.02454 0.14121,0.04705 0.23121,0.02504 0.0702,-0.01716 0.0991,-0.03982 0.13502,-0.06468 0.0359,-0.02487 0.0723,-0.05466 0.11641,-0.09336 0.0882,-0.07742 0.20478,-0.190424 0.36704,-0.355146 0.32451,-0.329444 0.83053,-0.865587 1.62498,-1.717161 0.95338,-1.021936 1.57359,-1.682602 1.96048,-2.086342 0.19345,-0.201867 0.32866,-0.33967 0.41636,-0.424714 0.0231,-0.02237 0.0338,-0.03079 0.0501,-0.04576 0.0621,0.01683 0.14607,0.04175 0.24334,0.0714 0.19772,0.06027 0.447,0.140998 0.67505,0.219681 0.14574,0.05028 0.24625,0.09042 0.29994,0.117769 0.0211,0.01075 0.0266,0.01562 0.0307,0.01829 0.003,0.919971 0.15511,1.828361 0.43009,2.690462 -0.0334,0.008 -0.008,0.0021 -0.0792,0.01221 -0.16619,0.02366 -0.43866,0.05621 -0.8707,0.106789 -0.27422,0.03212 -0.53306,0.06354 -0.73084,0.08848 -0.0989,0.01245 -0.18209,0.02312 -0.24496,0.03174 -0.0629,0.0086 -0.0836,0.0092 -0.13824,0.02195 -0.0597,0.014 -0.12838,0.04737 -0.17624,0.08848 -0.0479,0.04112 -0.0842,0.0882 -0.12693,0.151946 -0.0854,0.127492 -0.19423,0.326098 -0.37593,0.670022 -0.63052,1.193394 -2.53149,4.986599 -2.8619,5.711659 -0.0941,0.206408 -0.14964,0.342295 -0.14229,0.479023 0.007,0.136723 0.10561,0.251694 0.22717,0.342944 0.0426,0.03199 0.085,0.06025 0.12451,0.0836 0.0197,0.01166 0.0386,0.0222 0.0606,0.03233 0.022,0.01012 0.021,0.03054 0.13016,0.03054 -0.004,0 0.053,0.008 0.12531,-0.01525 0.0723,-0.02329 0.1118,-0.06239 0.1439,-0.100078 0.0642,-0.07538 0.12911,-0.18625 0.2587,-0.425322 0.25918,-0.478144 0.7548,-1.453082 1.78021,-3.462999 0.63809,-1.250744 0.96252,-1.884961 1.14557,-2.204724 0.0915,-0.159881 0.15044,-0.240738 0.17947,-0.270935 0.029,-0.0302 0.002,-0.01271 0.0453,-0.02624 0.0776,-0.02433 0.33764,-0.06988 0.6411,-0.103739 0.30347,-0.03387 0.66276,-0.06161 0.99439,-0.07445 l 0.35653,-0.01404 c 1.17821,2.413465 3.37787,3.956065 5.82729,3.959718 h 8.3e-4 c 2.45617,-0.0042 4.66153,-1.554172 5.837,-3.978634 0.002,4.6e-5 8.2e-4,-5.4e-5 0.002,0 0.0634,0.0021 0.14979,0.0067 0.249,0.01341 0.19841,0.0135 0.45137,0.03508 0.70416,0.0598 0.25279,0.0247 0.50589,0.05257 0.70577,0.07811 0.0999,0.01279 0.18669,0.02479 0.25143,0.03541 0.0647,0.01062 0.11718,0.02487 0.10186,0.01954 0.0195,0.0068 -0.003,-0.01366 0.0364,0.03478 0.039,0.04846 0.10574,0.154878 0.21344,0.349043 0.21538,0.388335 0.59683,1.132703 1.32666,2.562923 0.73741,1.445101 1.15896,2.266777 1.41074,2.74233 0.25178,0.475553 0.32328,0.602566 0.41716,0.691988 l 0.24416,0.232107 0.36461,-0.300837 c 0.0611,-0.05053 0.11621,-0.101249 0.15926,-0.147064 0.0215,-0.02291 0.0403,-0.04394 0.0566,-0.06651 0.0163,-0.02258 0.0404,-0.03299 0.0404,-0.105568 0,-0.03795 -0.006,-0.03608 -0.008,-0.04333 -0.002,-0.0072 -0.005,-0.01346 -0.007,-0.02012 -0.005,-0.01341 -0.0116,-0.02895 -0.0202,-0.04821 -0.0173,-0.03853 -0.0421,-0.09138 -0.0736,-0.157436 -0.063,-0.132108 -0.15411,-0.317163 -0.26517,-0.542484 -0.22211,-0.450641 -0.52647,-1.060198 -0.85695,-1.717161 -0.66096,-1.313925 -1.4249,-2.815471 -1.84084,-3.605788 -0.11975,-0.227545 -0.23503,-0.432037 -0.32742,-0.583983 -0.0462,-0.07597 -0.0859,-0.138365 -0.12046,-0.186725 -0.0173,-0.02416 -0.0323,-0.04483 -0.0493,-0.06407 -0.017,-0.01925 -0.008,-0.03603 -0.10105,-0.07323 -0.0495,-0.01983 -0.0574,-0.01716 -0.0817,-0.02195 -0.0242,-0.0048 -0.0517,-0.0092 -0.0849,-0.01466 -0.0663,-0.01079 -0.15341,-0.0242 -0.25628,-0.03845 -0.20574,-0.02845 -0.47522,-0.06245 -0.76156,-0.09581 -0.45531,-0.05303 -0.73806,-0.08685 -0.90546,-0.111059 -0.0341,-0.0049 -0.0424,-0.0081 -0.0671,-0.01221 0.26488,-0.83471 0.41259,-1.712574 0.42282,-2.602585 1e-5,-0.0012 8.2e-4,-0.0025 8.2e-4,-0.0037 0.0125,-0.04767 0.0283,-0.07605 0.0315,-0.08543 0.006,-0.0037 0.0108,-0.0065 0.0194,-0.01037 0.0301,-0.01341 0.0753,-0.03133 0.12774,-0.05126 0.10481,-0.03991 0.24251,-0.08833 0.38563,-0.13547 0.28624,-0.09428 0.62202,-0.186705 0.68718,-0.19649 0.007,-8.33e-4 0.006,-8.33e-4 0.009,-0.0013 -0.007,-0.0021 -0.0115,-0.0064 0.0121,0.011 0.0601,0.04431 0.19327,0.173182 0.43737,0.419832 0.27319,0.27603 1.16544,1.215505 1.97342,2.07841 1.05125,1.122692 1.58109,1.689363 1.87318,1.974058 0.14605,0.142347 0.22185,0.212969 0.32338,0.264837 0.0508,0.02595 0.13159,0.05015 0.21181,0.03966 0.0802,-0.0105 0.12089,-0.04128 0.13986,-0.05309 0.089,-0.05545 0.0914,-0.08761 0.11965,-0.13425 0.0282,-0.04665 0.0551,-0.100169 0.08,-0.156215 0.0497,-0.112134 0.0945,-0.215319 0.0945,-0.322845 0,-0.07869 -0.0222,-0.07882 -0.038,-0.103736 -0.0158,-0.02491 -0.0356,-0.05261 -0.0606,-0.08543 -0.05,-0.06564 -0.12063,-0.151691 -0.21262,-0.259955 -0.18398,-0.216527 -0.45158,-0.519301 -0.79147,-0.895193 -0.67978,-0.751779 -1.64865,-1.796593 -2.80774,-3.026691 -0.23253,-0.246766 -0.44752,-0.475053 -0.60634,-0.643782 -0.15882,-0.16873 -0.27518,-0.29334 -0.26759,-0.284971 l -8.3e-4,-4.16e-4 c -2.6e-4,-2.88e-4 -0.0321,-0.02887 -0.0485,-0.03782 -0.0164,-0.009 -0.0315,-0.01433 -0.0445,-0.01829 -0.0258,-0.008 -0.0439,-0.01033 -0.0582,-0.01158 -0.0286,-0.0025 -0.0443,-0.0013 -0.059,0 -0.0293,0.0021 -0.0521,0.0062 -0.0784,0.011 -0.0527,0.0096 -0.11498,0.02337 -0.1908,0.0421 -0.15163,0.03749 -0.3515,0.09269 -0.56753,0.15744 -0.21006,0.06295 -0.41497,0.120665 -0.57319,0.161706 -0.0791,0.02054 -0.14696,0.03632 -0.19564,0.04699 -0.007,0.0017 -4.2e-4,4.16e-4 -0.008,0.0017 -0.10647,-0.786334 -0.31789,-1.547574 -0.6225,-2.260861 4e-4,0.0071 0.002,-0.0033 0.0315,-0.03599 0.036,-0.04082 0.0914,-0.09629 0.15845,-0.158049 0.13416,-0.123518 0.31626,-0.274943 0.50366,-0.42044 0.1874,-0.145501 0.38058,-0.285682 0.53519,-0.386268 0.0773,-0.0503 0.14605,-0.09061 0.19403,-0.115333 0.003,-0.0017 -0.002,1.7e-5 8.3e-4,-0.0012 0.0327,0.01637 0.0693,0.0342 0.12531,0.06407 0.14082,0.07507 0.35366,0.19244 0.64837,0.356979 0.58943,0.329077 1.50594,0.847578 2.83442,1.603657 0.47577,0.270773 0.88087,0.491624 1.17872,0.64317 0.14893,0.07577 0.27013,0.134324 0.36461,0.174523 0.0472,0.02008 0.0866,0.03524 0.12774,0.0476 0.0206,0.0062 0.0412,0.01233 0.0719,0.0165 0.0307,0.0042 0.0802,0.01608 0.16088,-0.02137 0.10496,-0.04869 0.0983,-0.07986 0.11803,-0.1135 0.0197,-0.03362 0.0363,-0.07036 0.0533,-0.113504 0.0341,-0.08629 0.068,-0.195648 0.097,-0.317313 0.016,-0.06727 0.0196,-0.174078 -0.0485,-0.269715 -0.0682,-0.09564 -0.17947,-0.182726 -0.37269,-0.311214 -0.38645,-0.256976 -1.11933,-0.675929 -2.53934,-1.484663 -0.89734,-0.511061 -1.52375,-0.864275 -1.94997,-1.099618 -0.42623,-0.23534 -0.63521,-0.347561 -0.76884,-0.399083 -0.0521,-0.02008 -0.16553,-0.03395 -0.24658,-0.01283 -0.081,0.02112 -0.13975,0.05427 -0.21989,0.103735 -0.16028,0.09894 -0.40165,0.274968 -0.84645,0.601679 -0.25452,0.186946 -0.4862,0.353443 -0.6605,0.47597 -0.0544,0.0382 -0.0916,0.06287 -0.1334,0.09153 -0.3267,-0.526713 -0.69882,-1.013617 -1.1294,-1.431575 0.0184,-0.07098 0.18431,-0.342882 0.7656,-1.07277 0.43829,-0.55032 0.66315,-0.830195 0.78581,-0.956213 0.0613,-0.06301 0.0951,-0.08232 0.0938,-0.08177 -0.001,4.16e-4 -0.0197,0.0017 0.0267,0.0017 -0.0294,0 4.2e-4,4.16e-4 0.0307,0.0049 0.0303,0.0043 0.0739,0.01108 0.12694,0.02012 0.10608,0.01812 0.25223,0.04511 0.42524,0.07811 0.34602,0.06598 0.80175,0.157107 1.283,0.257514 1.23235,0.257105 2.11323,0.436116 2.70426,0.547978 0.29552,0.05593 0.51771,0.09467 0.6791,0.118991 0.0807,0.01216 0.14591,0.02066 0.20049,0.02562 0.0546,0.005 0.0852,0.01333 0.16574,-0.0017 0.0883,-0.01666 0.1571,-0.06335 0.19807,-0.110447 0.041,-0.0471 0.0644,-0.09739 0.0825,-0.153166 0.0361,-0.111558 0.0493,-0.249028 0.0493,-0.425935 0,-0.07906 0.01,-0.144967 -0.0566,-0.225779 -0.0663,-0.08081 -0.16862,-0.104102 -0.25143,-0.123876 -0.43338,-0.103502 -1.76163,-0.395021 -3.04219,-0.671856 -0.64028,-0.138415 -1.26702,-0.273214 -1.76161,-0.377724 -0.49459,-0.10451 -0.84515,-0.177082 -0.97256,-0.198931 -0.0311,-0.0053 -0.0731,-0.01079 -0.12289,-0.0073 z m 0.0509,0.309993 c 0.0979,0.01725 0.45121,0.08886 0.93457,0.191 0.49337,0.104251 1.1195,0.238826 1.75918,0.377112 1.27935,0.276576 2.61619,0.570378 3.03087,0.669414 0.0146,0.0033 0.0126,0.0033 0.0202,0.0055 0.002,0.01246 0.004,0.0252 0.004,0.05248 0,0.16383 -0.0158,0.284824 -0.038,0.353317 -0.006,0.01908 -0.01,0.02249 -0.0154,0.03233 -0.0371,-0.0037 -0.0869,-0.0098 -0.15522,-0.02012 -0.14927,-0.02249 -0.36755,-0.06126 -0.65971,-0.116549 -0.58433,-0.110593 -1.46354,-0.288711 -2.69455,-0.545538 -0.48385,-0.100944 -0.94259,-0.192574 -1.29271,-0.259342 -0.17507,-0.03337 -0.32238,-0.06086 -0.43414,-0.07994 -0.0559,-0.0095 -0.10249,-0.0165 -0.14067,-0.02195 -0.0382,-0.0055 -0.0553,-0.01037 -0.10753,-0.01037 -0.0509,0 -0.1444,0.0025 -0.22959,0.03903 -0.0852,0.03678 -0.14412,0.08956 -0.21909,0.166592 -0.14996,0.154058 -0.36929,0.428997 -0.80764,0.9794 -0.60017,0.753574 -0.80719,1.00314 -0.8416,1.225324 l -0.0105,0.06346 0.0534,0.04943 c 0.4891,0.460932 0.92014,1.006652 1.27654,1.61952 l 0.0889,0.154387 0.19564,-0.08116 c 0.0403,-0.01679 0.0479,-0.02429 0.0687,-0.03724 0.0209,-0.01291 0.0449,-0.02845 0.0736,-0.0476 0.0573,-0.03824 0.13116,-0.08957 0.2199,-0.151946 0.17747,-0.124756 0.41151,-0.293227 0.66778,-0.481464 0.44404,-0.326157 0.68934,-0.503472 0.81976,-0.583979 0.0428,-0.02645 0.0484,-0.02658 0.0623,-0.03295 0.0699,0.02991 0.27512,0.131104 0.67425,0.351485 0.42275,0.233423 1.0476,0.58647 1.94432,1.097177 1.4197,0.808554 2.15701,1.231373 2.51589,1.47002 0.17944,0.119324 0.25954,0.193528 0.28296,0.226392 0.0234,0.03287 0.0183,0.02208 0.007,0.07139 -0.0248,0.104252 -0.053,0.193111 -0.0792,0.262396 -0.0749,-0.03349 -0.16347,-0.07324 -0.28457,-0.134857 -0.28784,-0.146451 -0.68906,-0.365461 -1.16094,-0.634018 -1.32885,-0.756291 -2.24594,-1.275138 -2.83765,-1.60549 -0.29585,-0.165176 -0.50993,-0.283562 -0.65565,-0.361249 -0.0729,-0.03887 -0.12748,-0.0673 -0.16978,-0.08787 -0.0212,-0.01029 -0.0389,-0.018 -0.0574,-0.02562 -0.009,-0.0037 -0.0192,-0.0078 -0.0332,-0.0122 -0.0139,-0.0044 -0.0235,-0.01341 -0.0865,-0.01341 -0.14321,0 -0.17576,0.0382 -0.24496,0.07384 -0.0692,0.03566 -0.14606,0.08181 -0.2304,0.136686 -0.16871,0.109751 -0.36721,0.254065 -0.56107,0.404577 -0.19386,0.150517 -0.38209,0.307061 -0.52711,0.440577 -0.0725,0.06676 -0.13381,0.127276 -0.1819,0.181848 -0.0481,0.05457 -0.089,0.08866 -0.10429,0.172082 l -0.006,0.03478 0.0153,0.03358 c 0.31339,0.719137 0.52676,1.494477 0.6314,2.295037 l 0.002,0.01708 0.006,0.01525 c 0.0262,0.06027 0.0551,0.114629 0.12612,0.160486 0.071,0.04586 0.16689,0.05492 0.21666,0.05492 0.0873,0 0.10676,-0.01146 0.16573,-0.02441 0.059,-0.01291 0.13027,-0.03091 0.21344,-0.05248 0.16633,-0.04314 0.37623,-0.101373 0.59178,-0.165975 0.20958,-0.06282 0.40356,-0.116187 0.54327,-0.150725 0.041,-0.01012 0.0639,-0.01483 0.0938,-0.02137 0.0441,0.04704 0.0815,0.08651 0.19484,0.206862 0.15889,0.1688 0.37378,0.396987 0.60633,0.643782 1.15806,1.228986 2.12556,2.272734 2.8029,3.021809 0.33867,0.374538 0.60488,0.675892 0.785,0.88787 0.0901,0.105989 0.15883,0.189912 0.20292,0.247749 0.0186,0.02437 0.0299,0.04095 0.0388,0.05431 -0.004,0.02187 -0.0285,0.119378 -0.0679,0.208087 -0.0108,0.02437 -0.0212,0.04225 -0.0323,0.06407 -0.0393,-0.03166 -0.0519,-0.0367 -0.13258,-0.115333 -0.27798,-0.270932 -0.81309,-0.840439 -1.86428,-1.963077 -0.80909,-0.864075 -1.69533,-1.798406 -1.97908,-2.085121 -0.24463,-0.24717 -0.36752,-0.373263 -0.47861,-0.455224 -0.0555,-0.04099 -0.11785,-0.07649 -0.19645,-0.09215 -0.0786,-0.01566 -0.14682,-0.0059 -0.18999,8.34e-4 -0.18616,0.02795 -0.47429,0.118211 -0.77126,0.216018 -0.14848,0.04891 -0.29158,0.09961 -0.40664,0.143402 -0.0575,0.02191 -0.10779,0.04205 -0.15038,0.06102 -0.0426,0.01895 -0.0706,0.02641 -0.11965,0.06712 -0.0839,0.06951 -0.10263,0.141561 -0.12611,0.24348 v 4.16e-4 4.17e-4 l -0.003,0.01221 v 0.01283 c -2e-5,0.0017 1e-5,0.0033 0,0.0049 -0.009,0.921425 -0.16052,1.832869 -0.44788,2.688629 l -0.0275,0.07933 0.0736,0.06041 c 0.0591,0.04926 0.11048,0.05876 0.16492,0.0714 0.0544,0.01262 0.11891,0.02354 0.20939,0.03662 0.18097,0.02616 0.4639,0.05976 0.92001,0.112888 0.28294,0.03295 0.54974,0.06685 0.75024,0.09459 0.10025,0.01387 0.1833,0.02633 0.24254,0.03599 0.0148,0.0025 0.0233,0.0042 0.0348,0.0061 0.004,0.0053 0.005,0.0068 0.01,0.01341 0.0274,0.03837 0.0659,0.09725 0.10995,0.169642 0.088,0.144785 0.20089,0.345203 0.31853,0.568724 0.4138,0.78628 1.1787,2.288468 1.83922,3.601518 0.33025,0.656521 0.63456,1.265782 0.85614,1.715328 0.11079,0.224771 0.20066,0.409868 0.26275,0.540043 0.031,0.06508 0.0554,0.116853 0.0711,0.151945 -0.003,0.0037 -0.004,0.0045 -0.008,0.0085 -0.0305,0.03249 -0.0765,0.07669 -0.12693,0.118382 l -0.0259,0.02075 c -0.031,-0.03845 -0.0969,-0.128514 -0.32097,-0.551686 -0.2499,-0.471921 -0.67103,-1.29371 -1.40836,-2.738652 -0.72988,-1.430333 -1.10992,-2.172785 -1.33071,-2.570859 -0.11039,-0.199035 -0.17891,-0.311964 -0.24172,-0.38993 -0.0628,-0.07797 -0.15341,-0.133092 -0.21263,-0.153775 -0.0645,-0.02254 -0.11285,-0.02862 -0.18755,-0.04087 -0.0747,-0.01225 -0.16534,-0.02516 -0.26922,-0.03845 -0.20775,-0.02654 -0.46496,-0.05421 -0.72194,-0.07933 -0.25698,-0.02512 -0.51397,-0.04757 -0.72033,-0.06163 -0.10318,-0.007 -0.19369,-0.01225 -0.26759,-0.01462 -0.0739,-0.0025 -0.11453,-0.0073 -0.19161,0.0049 l -0.11237,0.0177 -0.0372,0.08177 c -1.12474,2.409945 -3.25413,3.870238 -5.51604,3.874283 -2.25852,-0.0033 -4.38456,-1.458718 -5.5112,-3.862694 l -0.0509,-0.108009 -0.64352,0.02504 c -0.34666,0.01341 -0.71577,0.04209 -1.0332,0.0775 -0.31743,0.03541 -0.56954,0.07161 -0.73811,0.124485 -0.0515,0.01612 -0.15206,0.05965 -0.21909,0.129367 -0.067,0.06972 -0.12756,0.16256 -0.22313,0.329519 -0.19115,0.333918 -0.51311,0.964307 -1.15123,2.215096 -1.02544,2.009984 -1.52309,2.988255 -1.77778,3.458117 -0.0998,0.184034 -0.13972,0.241851 -0.17543,0.294127 -7.7e-4,-4.17e-4 -0.002,-8.34e-4 -0.002,-0.0012 -0.0936,-0.07027 -0.10544,-0.08476 -0.10833,-0.13852 -0.003,-0.05376 0.0308,-0.16892 0.12126,-0.367351 0.31596,-0.693351 2.2306,-4.515545 2.85544,-5.698233 0.18099,-0.34257 0.29053,-0.54043 0.36057,-0.645003 0.0347,-0.05187 0.0599,-0.07893 0.0695,-0.08726 -0.0121,0.0033 0.027,-0.0042 0.0808,-0.01158 0.0597,-0.0082 0.14155,-0.01879 0.2393,-0.03112 0.1955,-0.02466 0.45392,-0.05593 0.7268,-0.08787 0.43269,-0.05065 0.70531,-0.08323 0.88363,-0.108617 0.17832,-0.02537 0.25565,-0.02487 0.36299,-0.08909 l 0.10268,-0.06163 -0.0323,-0.0958 c -0.29673,-0.878838 -0.45122,-1.817226 -0.45354,-2.764295 v -4.17e-4 -0.0165 l -0.002,-0.0092 c -3.7e-4,-0.0029 -0.001,-0.0073 -0.002,-0.01158 -5.4e-4,-0.0043 -3.6e-4,-0.0088 -8.3e-4,-0.01283 -5e-4,-0.0037 -0.004,-0.02037 -0.004,-0.02258 -0.027,-0.09715 -0.11135,-0.146193 -0.2005,-0.191612 -0.0891,-0.04541 -0.20293,-0.08924 -0.35814,-0.142789 -0.23447,-0.08089 -0.48768,-0.162885 -0.69203,-0.225171 -0.10218,-0.03116 -0.19266,-0.05713 -0.26355,-0.07628 -0.0354,-0.0096 -0.0655,-0.01704 -0.093,-0.0232 -0.0275,-0.0062 -0.0335,-0.01404 -0.10268,-0.01404 -0.0675,0 -0.093,0.01483 -0.11156,0.0232 -0.0185,0.0083 -0.0286,0.01583 -0.038,0.02195 -0.0188,0.01225 -0.0316,0.02195 -0.0469,0.03478 -0.0306,0.02562 -0.0663,0.05947 -0.11319,0.10496 -0.0938,0.09098 -0.23135,0.230082 -0.42605,0.433254 -0.38939,0.406347 -1.00842,1.067134 -1.9621,2.089395 -0.79392,0.851003 -1.30014,1.386417 -1.61932,1.710446 -0.15959,0.162014 -0.27338,0.27146 -0.34925,0.338058 -0.004,0.0033 -0.005,0.0037 -0.008,0.0067 -0.0193,-0.02516 -0.0386,-0.04447 -0.0566,-0.0775 -0.0307,-0.05622 -0.0545,-0.118465 -0.0647,-0.165979 -0.007,-0.03478 9.4e-4,-0.06195 -0.002,-0.06347 0.0136,-0.01775 0.10382,-0.125201 0.24011,-0.277646 0.14101,-0.15774 0.33196,-0.368127 0.55621,-0.613273 0.44851,-0.490291 1.02954,-1.118318 1.60719,-1.739127 0.57766,-0.620808 1.15268,-1.234713 1.58941,-1.695799 0.21837,-0.230544 0.40159,-0.423285 0.53358,-0.558963 0.0592,-0.06089 0.10372,-0.105202 0.13986,-0.140961 0.0325,0.0079 0.0608,0.01425 0.10591,0.02625 0.13977,0.0372 0.33095,0.09198 0.536,0.154386 0.2226,0.06774 0.42822,0.124677 0.59259,0.16476 0.0822,0.02004 0.15417,0.03591 0.21505,0.04698 0.0609,0.01108 0.0936,0.02304 0.18271,0.01525 0.0893,-0.0078 0.22256,-0.0711 0.27083,-0.141573 l 0.0178,-0.02624 0.004,-0.02866 c 0.10192,-0.78568 0.30874,-1.547715 0.61199,-2.255983 l 0.006,-0.01283 0.002,-0.01404 c 0.005,-0.0262 0.0111,-0.05935 0.0162,-0.0897 0.002,-0.01516 0.004,-0.02933 0.006,-0.04454 0.001,-0.01521 0.0108,-0.02041 -0.006,-0.06957 -0.0168,-0.05008 -0.0339,-0.06074 -0.0517,-0.08055 -0.0178,-0.01983 -0.0375,-0.03987 -0.0614,-0.06224 -0.0479,-0.04476 -0.11103,-0.0985 -0.18433,-0.159269 -0.14657,-0.121527 -0.33594,-0.270161 -0.52872,-0.41617 -0.19278,-0.146005 -0.388,-0.288349 -0.54409,-0.396033 -0.078,-0.05384 -0.14637,-0.09887 -0.20292,-0.133025 -0.0283,-0.01708 -0.0526,-0.03095 -0.0792,-0.04394 -0.0267,-0.013 -0.0248,-0.03724 -0.14633,-0.03724 -0.11229,0 -0.16242,0.02954 -0.24819,0.06834 -0.0858,0.03883 -0.1985,0.09695 -0.3638,0.18673 -0.33062,0.17956 -0.86829,0.485167 -1.76484,0.999537 -1.19571,0.686002 -1.93846,1.108029 -2.39705,1.355911 -0.2293,0.12394 -0.38913,0.204734 -0.49235,0.251407 -0.0523,0.02366 -0.0336,0.01816 -0.055,0.02441 -0.0258,-0.04999 -0.056,-0.135536 -0.0816,-0.25995 -0.01,-0.04614 -0.0101,-0.06822 -0.008,-0.0775 0.002,-0.0093 0.003,-0.01691 0.034,-0.04638 0.0623,-0.05893 0.24477,-0.176498 0.59583,-0.390538 0.61352,-0.374055 4.01092,-2.312754 4.48689,-2.561095 0.17223,-0.08986 0.27381,-0.136162 0.31044,-0.147671 0.001,-3.46e-4 6.6e-4,-2.8e-4 0.002,-8.34e-4 0.003,0.0017 0.005,0.0017 0.008,0.0037 0.016,0.0092 0.0397,0.02416 0.0687,0.04272 0.0581,0.03712 0.13741,0.08991 0.23041,0.153774 0.186,0.127726 0.42706,0.299155 0.67748,0.482685 h 8.3e-4 l 1.0914,0.798777 0.11642,-0.203813 c 0.36089,-0.627748 0.79979,-1.185575 1.29917,-1.655529 l 0.059,-0.05614 -0.0186,-0.06896 c -0.0182,-0.06978 -0.0545,-0.130275 -0.11322,-0.22148 -0.0587,-0.09121 -0.13969,-0.20533 -0.24253,-0.343553 -0.20569,-0.276451 -0.50127,-0.649727 -0.88364,-1.115482 -0.25282,-0.307969 -0.38148,-0.469104 -0.51902,-0.575439 -0.0688,-0.05317 -0.1527,-0.09529 -0.24334,-0.111667 -0.0906,-0.01637 -0.16866,-0.0086 -0.2385,-0.0012 -0.0706,0.0075 -0.1427,0.023 -0.29265,0.05126 -0.14996,0.02828 -0.35337,0.06725 -0.59421,0.114724 -0.48169,0.09495 -1.11681,0.223242 -1.79072,0.361249 -0.67227,0.13767 -1.30941,0.263284 -1.79313,0.355147 -0.24187,0.04593 -0.44558,0.08332 -0.59502,0.10923 -0.0747,0.01296 -0.13586,0.0232 -0.18029,0.02991 -0.0444,0.0067 -0.0823,0.0091 -0.0639,0.0085 l -0.0485,0.0013 -0.017,-0.07872 v -8.33e-4 c -0.029,-0.13747 -0.028,-0.240201 -0.0113,-0.297176 0.0168,-0.05709 0.0292,-0.06023 0.0493,-0.06713 0.004,-0.0012 0.13545,-0.03741 0.30883,-0.07811 0.17338,-0.0407 0.4062,-0.0931 0.67667,-0.153166 0.54096,-0.120136 1.23452,-0.270045 1.92492,-0.416779 0.69039,-0.146734 1.37704,-0.290177 1.90228,-0.396641 0.26261,-0.05323 0.48544,-0.09709 0.64675,-0.127538 0.0807,-0.01521 0.14629,-0.02708 0.19242,-0.03478 0.037,-0.0062 0.0513,-0.0067 0.0396,-0.0073 0.002,0.0017 -0.002,2.5e-4 0.005,0.0049 0.0314,0.02187 0.0963,0.08079 0.19241,0.187337 0.19211,0.213103 0.5149,0.615426 1.08574,1.3376 0.54285,0.686772 0.7398,0.941033 0.92082,1.070325 l 0.14067,0.100686 0.14067,-0.101294 c 0.99091,-0.714688 2.1134,-1.08558 3.2532,-1.089242 1.15346,4.16e-4 2.29,0.37745 3.29038,1.105717 l 0.16493,0.119603 0.16007,-0.157436 c 0.0322,-0.0317 0.0584,-0.06484 0.11237,-0.129367 0.054,-0.06453 0.12411,-0.150738 0.20778,-0.25324 0.16733,-0.205009 0.38614,-0.474432 0.61361,-0.759115 0.5299,-0.663195 0.83514,-1.044618 1.01945,-1.254613 0.0922,-0.104994 0.15493,-0.166688 0.18918,-0.194049 0.004,-0.0033 0.002,-0.0025 0.004,-0.0042 z m -7.41913,6.874734 a 2.0696273,3.280542 0 0 0 -2.06963,3.280544 2.0696273,3.280542 0 0 0 2.06963,3.280543 2.0696273,3.280542 0 0 0 1.70097,-1.422422 2.0696273,2.9681095 0 0 0 1.61043,1.109987 2.0696273,2.9681095 0 0 0 2.06963,-2.968108 2.0696273,2.9681095 0 0 0 -2.06963,-2.968109 2.0696273,2.9681095 0 0 0 -1.608,1.105718 2.0696273,3.280542 0 0 0 -1.7034,-1.418153 z m 0.66212,2.312125 a 0.455318,0.78108144 0 0 1 0.28457,0.172691 0.41392546,0.31243257 0 0 0 -0.28457,0.295959 0.41392546,0.31243257 0 0 0 0.41392,0.312431 0.41392546,0.31243257 0 0 0 0.0412,-0.0017 0.455318,0.78108144 0 0 1 0,4.16e-4 0.455318,0.78108144 0 0 1 0,4.17e-4 0.455318,0.78108144 0 0 1 0,4.17e-4 0.455318,0.78108144 0 0 1 -0.45515,0.781081 0.455318,0.78108144 0 0 1 -0.45516,-0.781081 0.455318,0.78108144 0 0 1 0.45516,-0.781081 z m 3.35263,0 a 0.455318,0.78108144 0 0 1 0.28538,0.172083 0.41392546,0.31243257 0 0 0 -0.28538,0.296567 0.41392546,0.31243257 0 0 0 0.41393,0.312431 0.41392546,0.31243257 0 0 0 0.042,-0.0025 0.455318,0.78108144 0 0 1 0,8.33e-4 0.455318,0.78108144 0 0 1 0,4.16e-4 0.455318,0.78108144 0 0 1 0,4.17e-4 0.455318,0.78108144 0 0 1 0,4.17e-4 0.455318,0.78108144 0 0 1 -0.45597,0.781081 0.455318,0.78108144 0 0 1 -0.45515,-0.781081 0.455318,0.78108144 0 0 1 0.45515,-0.781081 z"
     style="fill:#000000;stroke-width:0.479488"
     id="path2" />
  <path
     d="m 67.490598,7.9171139 c -0.565759,0.01157 -1.255835,0.132506 -2.089839,0.384813 L 61.729752,24.68398 58.80643,13.249527 C 58.69237,9.0980749 55.9355,7.1512729 51.798422,8.3019269 L 47.42876,24.412168 45.096842,13.997775 C 44.715738,10.275158 43.532322,6.7564239 38.882484,8.3019269 l 5.708753,23.4552901 h 5.233789 l 4.746569,-17.536494 3.232815,11.904782 c 0.514354,3.793239 2.047136,7.137923 6.649486,5.631712 l 4.403371,-17.789984 c 1.116476,-2.975278 1.688427,-6.1123651 -1.366669,-6.0501191 z m 119.767372,0.08552 c -1.92831,-0.07528 -2.61354,2.4950261 -2.01017,5.0208981 1.61502,5.958011 -4.02779,2.709708 -7.80166,3.851187 -7.13728,2.879251 -3.6141,16.108786 4.28692,14.818368 3.12202,-3.276677 4.32925,0.59097 7.76489,-0.274866 0.0532,-7.440808 -0.11406,-14.965094 0.10103,-22.3588771 -0.91706,-0.712549 -1.69834,-1.03162 -2.34111,-1.05671 z m -51.02333,0.12522 c -3.27954,-0.08177 -6.54402,1.673589 -7.00188,5.4270911 -2.27511,8.493895 9.16461,5.529973 10.65451,11.654346 -2.86703,7.376301 -7.61035,-3.150603 -11.57686,-1.230791 -0.22429,7.006764 8.4808,10.174672 13.538,5.970714 6.91629,-7.191171 -2.78165,-12.867835 -8.97221,-14.885558 0.74606,-7.9043371 8.72386,3.907324 10.44306,-1.334629 -0.51004,-3.600046 -3.80508,-5.5194111 -7.08462,-5.6011731 z M 71.829617,8.3019289 V 22.637752 c 0.537613,2.993461 -1.297771,7.34071 1.115399,9.284387 7.685298,1.002634 -0.02259,-10.430827 6.211298,-12.649975 8.42713,-0.790114 -1.37045,14.681461 7.53506,12.448405 1.82221,-0.517063 0.35568,-4.456923 0.82735,-6.379961 2.81266,-6.518869 -6.41304,-12.841936 -10.98237,-6.932748 V 8.3019269 Z m 31.632553,1.9210121 c -0.58406,-0.0248 -1.42363,0.193276 -2.62609,0.754356 -0.21481,2.765795 -0.17738,5.474076 -2.613816,6.224204 4.971886,3.257141 -1.18696,16.505044 7.973246,14.476312 4.93407,-3.683179 -3.7822,-2.953521 -1.45554,-7.528293 -2.16779,-4.563224 3.93295,-4.35241 2.82834,-8.029161 -5.24412,1.452872 -0.95227,-5.76352 -4.10614,-5.897418 z m -11.074296,0.390921 c -1.43554,-0.01794 -2.62328,0.970766 -1.73132,3.942811 h 2.50964 c 4.69593,-1.088293 1.61423,-3.912921 -0.77832,-3.942811 z m 75.307736,0.879574 c -1.43554,-0.01794 -2.62329,0.970766 -1.73133,3.94281 h 2.50965 c 4.69592,-1.088292 1.61423,-3.91292 -0.77832,-3.94281 z m -74.989056,4.248217 c -0.56663,-0.0028 -1.24276,0.114775 -2.05,0.378706 v 15.63686 h 4.70673 v -9.437091 c 0.24549,-3.031167 0.40307,-6.563248 -2.65673,-6.578475 z m 55.818916,0.06414 c -0.41326,0.01126 -0.87424,0.147847 -1.38812,0.470327 v 16.733273 c -0.0527,3.309829 -0.97922,8.250657 4.25628,6.56626 v -6.596801 c 1.02315,-0.685571 9.09084,1.691102 10.74643,-3.454157 4.07099,-6.22519 -3.35942,-17.60255 -10.25001,-11.626862 -0.29119,1.501136 -1.13302,-2.152571 -3.36458,-2.09204 z m -31.16373,0.0794 c -7.01639,-0.136541 -11.60205,10.62651 -4.36046,14.66261 3.68231,4.98353 17.46734,-3.304129 7.50441,-3.89089 -0.24481,1.437228 -1.75926,2.262718 -3.12863,2.140907 -4.77658,-0.540851 -3.25376,-5.685328 1.31152,-3.689322 7.88406,2.958999 8.19913,-6.428268 1.8018,-8.444515 -1.07415,-0.515801 -2.1263,-0.759283 -3.12864,-0.77879 z m 99.23976,0.201569 c -3.39549,2.695138 -4.57838,-0.111929 -8.27662,0.378701 v 9.091979 c -0.20272,3.469972 -0.65322,7.881863 4.48611,6.199771 0.32354,-3.778152 -1.19752,-8.571913 1.73437,-11.544401 3.35609,1.318149 6.69629,-2.930146 2.05614,-4.126055 z m -48.58722,0.534463 c -0.56663,-0.0028 -1.24275,0.114775 -2.05,0.378706 v 15.63686 h 4.70673 v -9.437095 c 0.24549,-3.031168 0.40307,-6.563248 -2.65673,-6.578476 z m 13.62378,2.418827 c 0.14638,-0.0025 0.29596,0.0052 0.44739,0.02444 9.82614,2.567599 -4.0829,15.651235 -3.93453,4.504759 -0.29693,-2.084242 1.29101,-4.490456 3.48714,-4.529191 z m -62.89433,0.387867 c 1.27937,0.0091 2.30093,0.820926 2.01324,3.228157 h -2.97848 c -5.9086,0.625119 -1.84936,-3.248156 0.96524,-3.228157 z m 83.59662,3.228157 C 0,0 0,0 202.34035,22.656076 Z m -46.9938,-2.846397 c 1.3561,0.05362 2.61111,0.872295 2.98154,2.742558 4.14905,6.76113 -8.66674,10.259868 -6.98043,2.021798 -0.80179,-2.820227 1.73873,-4.853727 3.99889,-4.764356 z"
     style="fill:#000080"
     id="path3"
     sodipodi:nodetypes="cccccccccccccccccccccccsccccccscccccccccscccccssccssccsccccccccccccccscccccsccsccccsssccccsssccsssccsccsccs" />
  <text
     xml:space="preserve"
     style="font-style:normal;font-variant:normal;font-weight:normal;font-stretch:normal;font-size:15.9271px;font-family:'Insaniburger with Cheese';-inkscape-font-specification:'Insaniburger with Cheese, Normal';font-variant-ligatures:normal;font-variant-caps:normal;font-variant-numeric:normal;font-variant-east-asian:normal;fill:url(#linearGradient4);stroke-width:0.796353"
     x="70.336517"
     y="49.486656"
     id="text3"
     transform="scale(0.9828858,1.0174122)"><tspan
       sodipodi:role="line"
       id="tspan3"
       x="70.336517"
       y="49.486656"
       style="fill:url(#linearGradient4);stroke-width:0.796353">Bluespider Fork</tspan></text>
</svg>
